<svg viewBox="0 0 79 36" fill="none" xmlns="http://www.w3.org/2000/svg">
  <path fill-rule="evenodd" clip-rule="evenodd" d="M13.9 29L17 8H13L10 29H13.9Z" fill="white"/>
  <path fill-rule="evenodd" clip-rule="evenodd" d="M32.4571 29L36 8H31.4286L28 29H32.4571Z" fill="white"/>
  <path fill-rule="evenodd" clip-rule="evenodd" d="M12 8H0.571429L0 11.9442H3.42857L0.571429 29H5.14286L7.88571 11.9442H11.3143L12 8Z" fill="white"/>
  <path fill-rule="evenodd" clip-rule="evenodd" d="M47 8H36.6286L36 11.9442H39.1429L36.6286 29H40.7143L43.3333 11.9442H46.4762L47 8Z" fill="#FF4930"/>
  <path fill-rule="evenodd" clip-rule="evenodd" d="M30 8H25.2273L21.25 16.0606L22.6136 8H18.4091L15 29H19.2045L20.1136 23.697L21.25 21.7879L22.3864 29H26.7045L24.4318 17.3333L30 8Z" fill="white"/>
  <path fill-rule="evenodd" clip-rule="evenodd" d="M69 8H64.4737L60.7895 16.0606L62.1579 8H58.2632L55 29H58.8947L59.7368 23.697L60.7895 21.7879L61.9474 29H65.9474L63.8421 17.3333L69 8Z" fill="#FF4930"/>
  <path fill-rule="evenodd" clip-rule="evenodd" d="M74.8534 29H79L77.2069 8H72.8362L66 29H70.0345L71.1552 25.0758H74.7414L74.8534 29ZM72.2759 21.2576L74.4052 13.9394L74.6293 21.2576H72.2759Z" fill="#FF4930"/>
  <path fill-rule="evenodd" clip-rule="evenodd" d="M50.8534 29H55L53.2069 8H48.9483L42 29H46.0345L47.1552 25.0758H50.7414L50.8534 29ZM48.2759 21.2576L50.4052 13.9394L50.6293 21.2576H48.2759Z" fill="#FF4930"/>
</svg>
